<svg xmlns="http://www.w3.org/2000/svg" width="1200" height="538" viewBox="0 0 1200 538"><defs><mask id="b663b" width="2" height="2" x="-1" y="-1"><path fill="#fff" d="M15 15h1170v508H15z"/><path d="M19 15h1162a4 4 0 0 1 4 4v500a4 4 0 0 1-4 4H19a4 4 0 0 1-4-4V19a4 4 0 0 1 4-4z"/></mask><filter id="b663a" width="1220" height="558" x="-10" y="-10" filterUnits="userSpaceOnUse"><feOffset in="SourceGraphic" result="FeOffset1023Out"/><feGaussianBlur in="FeOffset1023Out" result="FeGaussianBlur1024Out" stdDeviation="6 6"/></filter></defs><g><g><g filter="url(#b663a)"><path fill="none" d="M19 15h1162a4 4 0 0 1 4 4v500a4 4 0 0 1-4 4H19a4 4 0 0 1-4-4V19a4 4 0 0 1 4-4z" mask="url(&quot;#b663b&quot;)"/><path fill-opacity=".1" d="M19 15h1162a4 4 0 0 1 4 4v500a4 4 0 0 1-4 4H19a4 4 0 0 1-4-4V19a4 4 0 0 1 4-4z"/></g><g filter="url(#b663a)"><path fill="none" d="M19 15h1162a4 4 0 0 1 4 4v500a4 4 0 0 1-4 4H19a4 4 0 0 1-4-4V19a4 4 0 0 1 4-4z" mask="url(&quot;#b663b&quot;)"/><path fill-opacity=".1" d="M19 15h1162a4 4 0 0 1 4 4v500a4 4 0 0 1-4 4H19a4 4 0 0 1-4-4V19a4 4 0 0 1 4-4z"/></g><path fill="#373737" d="M19 15h1162a4 4 0 0 1 4 4v500a4 4 0 0 1-4 4H19a4 4 0 0 1-4-4V19a4 4 0 0 1 4-4z"/></g></g></svg>